<?xml version="1.0" encoding="UTF-8"?>
<svg width="90px" height="92px" viewBox="0 0 90 92" version="1.1" xmlns="http://www.w3.org/2000/svg" xmlns:xlink="http://www.w3.org/1999/xlink">
    <title>bubbles</title>
    <g id="Page-1" stroke="none" stroke-width="1" fill="none" fill-rule="evenodd">
        <g id="bubbles">
            <rect id="Rectangle" fill="#dbdbdb" x="0" y="0" width="90" height="92"></rect>
            <path d="M9,18 C12.8659932,18 16,14.8659932 16,11 C16,7.13400675 12.8659932,4 9,4 C5.13400675,4 2,7.13400675 2,11 C2,14.8659932 5.13400675,18 9,18 Z M55,43 C58.8659932,43 62,39.8659932 62,36 C62,32.1340068 58.8659932,29 55,29 C51.1340068,29 48,32.1340068 48,36 C48,39.8659932 51.1340068,43 55,43 Z M12,36 C13.6568542,36 15,34.6568542 15,33 C15,31.3431458 13.6568542,30 12,30 C10.3431458,30 9,31.3431458 9,33 C9,34.6568542 10.3431458,36 12,36 Z M30,90 C31.6568542,90 33,88.6568542 33,87 C33,85.3431458 31.6568542,84 30,84 C28.3431458,84 27,85.3431458 27,87 C27,88.6568542 28.3431458,90 30,90 Z M85,11 C86.6568542,11 88,9.6568542 88,8 C88,6.34314575 86.6568542,5 85,5 C83.3431458,5 82,6.34314575 82,8 C82,9.6568542 83.3431458,11 85,11 Z M8,86 C10.209139,86 12,84.209139 12,82 C12,79.790861 10.209139,78 8,78 C5.790861,78 4,79.790861 4,82 C4,84.209139 5.790861,86 8,86 Z M36,21 C38.209139,21 40,19.209139 40,17 C40,14.790861 38.209139,13 36,13 C33.790861,13 32,14.790861 32,17 C32,19.209139 33.790861,21 36,21 Z M59,10 C61.7614237,10 64,7.76142375 64,5 C64,2.23857625 61.7614237,0 59,0 C56.2385763,0 54,2.23857625 54,5 C54,7.76142375 56.2385763,10 59,10 Z M51,65 C53.209139,65 55,63.209139 55,61 C55,58.790861 53.209139,57 51,57 C48.790861,57 47,58.790861 47,61 C47,63.209139 48.790861,65 51,65 Z M81,91 C83.7614237,91 86,88.7614237 86,86 C86,83.2385763 83.7614237,81 81,81 C78.2385763,81 76,83.2385763 76,86 C76,88.7614237 78.2385763,91 81,91 Z M28,63 C30.7614237,63 33,60.7614237 33,58 C33,55.2385763 30.7614237,53 28,53 C25.2385763,53 23,55.2385763 23,58 C23,60.7614237 25.2385763,63 28,63 Z M79,50 C81.7614237,50 84,47.7614237 84,45 C84,42.2385763 81.7614237,40 79,40 C76.2385763,40 74,42.2385763 74,45 C74,47.7614237 76.2385763,50 79,50 Z M76,29 C77.1045695,29 78,28.1045695 78,27 C78,25.8954305 77.1045695,25 76,25 C74.8954305,25 74,25.8954305 74,27 C74,28.1045695 74.8954305,29 76,29 Z M62,80 C63.1045695,80 64,79.1045695 64,78 C64,76.8954305 63.1045695,76 62,76 C60.8954305,76 60,76.8954305 60,78 C60,79.1045695 60.8954305,80 62,80 Z M31,41 C32.1045695,41 33,40.1045695 33,39 C33,37.8954305 32.1045695,37 31,37 C29.8954305,37 29,37.8954305 29,39 C29,40.1045695 29.8954305,41 31,41 Z M8,60 C9.1045695,60 10,59.1045695 10,58 C10,56.8954305 9.1045695,56 8,56 C6.8954305,56 6,56.8954305 6,58 C6,59.1045695 6.8954305,60 8,60 Z" id="Combined-Shape" fill="#5f5f5f" fill-rule="nonzero"></path>
        </g>
    </g>
</svg>
